<?xml version="1.0" encoding="utf-8"?>
<!-- Generator: Adobe Illustrator 16.0.4, SVG Export Plug-In . SVG Version: 6.00 Build 0)  -->
<!DOCTYPE svg PUBLIC "-//W3C//DTD SVG 1.1//EN" "http://www.w3.org/Graphics/SVG/1.1/DTD/svg11.dtd" [
	<!ENTITY ns_flows "http://ns.adobe.com/Flows/1.0/">
	<!ENTITY ns_extend "http://ns.adobe.com/Extensibility/1.0/">
	<!ENTITY ns_ai "http://ns.adobe.com/AdobeIllustrator/10.0/">
	<!ENTITY ns_graphs "http://ns.adobe.com/Graphs/1.0/">
	<!ENTITY ns_vars "http://ns.adobe.com/Variables/1.0/">
	<!ENTITY ns_imrep "http://ns.adobe.com/ImageReplacement/1.0/">
	<!ENTITY ns_sfw "http://ns.adobe.com/SaveForWeb/1.0/">
	<!ENTITY ns_custom "http://ns.adobe.com/GenericCustomNamespace/1.0/">
	<!ENTITY ns_adobe_xpath "http://ns.adobe.com/XPath/1.0/">
]>
<svg version="1.1" id="Layer_1" xmlns:x="&ns_extend;" xmlns:i="&ns_ai;" xmlns:graph="&ns_graphs;"
	 xmlns="http://www.w3.org/2000/svg" xmlns:xlink="http://www.w3.org/1999/xlink" xmlns:a="http://ns.adobe.com/AdobeSVGViewerExtensions/3.0/"
	 x="0px" y="0px" width="360px" height="85.918px" viewBox="0 0 360 85.918" enable-background="new 0 0 360 85.918"
	 xml:space="preserve">
<metadata>
	<sfw  xmlns="&ns_sfw;">
		<slices></slices>
		<sliceSourceBounds  x="-1" y="-222.709" width="360" height="85.918" bottomLeftOrigin="true"></sliceSourceBounds>
	</sfw>
</metadata>
<g>
	<path d="M328.456,36.345c-12.033-3.743-23.401-7.278-23.401-15.542c0-3.044,2.086-6.201,5.717-8.656
		c4.133-2.795,9.737-4.333,15.781-4.333c12.339,0,20.159,5.535,22.949,7.915l1.955,1.668l5.026-5.901l-1.958-1.665
		C350.207,6.16,340.83,0,326.553,0c-16.368,0-29.193,9.139-29.193,20.803c0,6.411,3.265,11.495,9.976,15.541
		c5.484,3.305,12.607,5.529,19.497,7.681c13.042,4.07,25.354,7.914,25.354,17.898c0,8.767-11.737,16.177-25.634,16.177
		c-14.737,0-23.752-6.974-26.943-9.974l-1.813-1.704l-5.454,5.453l1.873,1.815c3.79,3.675,14.533,12.227,32.338,12.227
		c18.441,0,33.447-10.767,33.447-23.994C360,46.154,343.243,40.944,328.456,36.345z"/>
	<path fill="#F15A22" d="M12.141,16.597v12.141h20.312v3.971H12.141v34.494c0,6.126,4.991,11.12,11.12,11.12
		c2.951,0,5.672-1.024,7.941-2.611l2.383,3.293c-2.837,2.152-6.466,3.404-10.324,3.404c-8.397,0-15.202-6.81-15.202-15.206V32.708H0
		v-3.971h8.059V16.597H12.141z M43.913,28.738l0.454,16.906h0.227c4.538-10.665,13.729-17.927,24.282-17.927l-0.453,4.085
		c-13.163,0.339-23.942,13.275-23.942,29.272v20.312h-3.973V28.738H43.913z M78.862,8.428c1.929,0,3.631,1.588,3.631,3.516
		c0,1.929-1.702,3.631-3.631,3.631s-3.516-1.702-3.516-3.631C75.346,10.016,76.933,8.428,78.862,8.428z M80.907,28.738v52.649
		h-3.974V28.738H80.907z M145.694,55.062c0,14.977-11.687,27.346-26.324,27.346c-9.53-0.116-17.816-5.676-22.126-14.07h-0.339
		l-0.454,13.049h-3.404V4.342h3.97V41.9h0.112c4.313-8.398,12.711-14.071,22.241-14.184
		C134.007,27.716,145.694,40.198,145.694,55.062z M97.017,55.062c0,12.819,10.1,23.26,22.354,23.26s22.239-10.44,22.239-23.26
		c0-12.71-9.985-23.375-22.239-23.375S97.017,42.353,97.017,55.062z M154.774,57.104c1.02,11.911,10.324,21.333,22.464,21.333
		c10.894,0,18.157-5.563,21.671-13.162l3.632,2.041c-3.858,7.94-12.368,15.203-25.303,15.203c-15.091,0-26.554-12.366-26.554-27.457
		c0-15.093,11.01-27.46,25.988-27.46c15.088,0,26.663,10.326,26.663,25.417v4.085h-28.935H154.774z M199.252,53.02
		c0-12.482-10.099-21.446-22.579-21.446c-12.029,0-20.878,9.531-21.898,21.446h19.739H199.252z"/>
	<g>
		<path d="M254.623,48.697L254.623,48.697L254.623,48.697z"/>
		<linearGradient id="SVGID_1_" gradientUnits="userSpaceOnUse" x1="243.6777" y1="60.873" x2="243.6777" y2="13.394">
			<stop  offset="0" style="stop-color:#DB2027"/>
			<stop  offset="0.408" style="stop-color:#F04E23"/>
			<stop  offset="0.9058" style="stop-color:#FFD41C"/>
			<a:midPointStop  offset="0" style="stop-color:#DB2027"/>
			<a:midPointStop  offset="0.5" style="stop-color:#DB2027"/>
			<a:midPointStop  offset="0.408" style="stop-color:#F04E23"/>
			<a:midPointStop  offset="0.5" style="stop-color:#F04E23"/>
			<a:midPointStop  offset="0.9058" style="stop-color:#FFD41C"/>
		</linearGradient>
		<path fill="url(#SVGID_1_)" d="M239.559,15.414c-1.098-0.675-2.377-1.351-3.873-2.02c1.229,0.456,8.413,2.667,12.082,7.571
			c4.029,4.802,4.543,12.294,0.72,20.885c-2.378,5.055-3.051,8.753-2.823,11.467l-1.984,1.604c-0.661,0.562-1.803,1.357-3.098,2.207
			c-4.787-4.276-6.85-12.287,2.073-24.301c5.263-7.039,0.768-13.553-0.733-15.242c-0.673-0.792-1.469-1.612-2.234-2.09
			L239.559,15.414z M251.629,60.765c0.006,0.003,0.002,0.009-0.003,0.009c0.009-0.006,0.018-0.006,0.021-0.011
			c0.009,0,0.019-0.004,0.023-0.004c-0.005-0.003-0.015-0.003-0.02-0.005c-0.057-0.104-1.708-0.443-3.267-1.774l-0.669,1.069
			c-0.11,0.176-0.184,0.353-0.239,0.53C248.968,60.895,250.405,60.956,251.629,60.765z"/>
		<linearGradient id="SVGID_2_" gradientUnits="userSpaceOnUse" x1="256.9873" y1="54.3379" x2="256.9873" y2="22.1885">
			<stop  offset="0" style="stop-color:#DB2027"/>
			<stop  offset="0.408" style="stop-color:#F04E23"/>
			<stop  offset="0.9058" style="stop-color:#FFD41C"/>
			<a:midPointStop  offset="0" style="stop-color:#DB2027"/>
			<a:midPointStop  offset="0.5" style="stop-color:#DB2027"/>
			<a:midPointStop  offset="0.408" style="stop-color:#F04E23"/>
			<a:midPointStop  offset="0.5" style="stop-color:#F04E23"/>
			<a:midPointStop  offset="0.9058" style="stop-color:#FFD41C"/>
		</linearGradient>
		<path fill="url(#SVGID_2_)" d="M254.978,41.831c7.059,10.309-0.467,12.454-0.051,12.507c-0.136-0.019,2.853-1.045,4.784-3.068
			c2.044-2.009,3.021-5.015,1.558-8.65c-1.342-3.624-4.183-5.93-5.609-8.758c-0.75-1.419-1.272-2.982-0.966-4.895
			c0.366-1.903,1.57-4.153,5.566-6.779c-0.74,0.42-5.132,2.59-6.988,6.127C251.181,31.825,251.629,36.699,254.978,41.831z"/>
		<linearGradient id="SVGID_3_" gradientUnits="userSpaceOnUse" x1="256.498" y1="60.6377" x2="256.498" y2="38.7246">
			<stop  offset="0" style="stop-color:#DB2027"/>
			<stop  offset="0.3782" style="stop-color:#F04E23"/>
			<stop  offset="0.8139" style="stop-color:#FFD41C"/>
			<a:midPointStop  offset="0" style="stop-color:#DB2027"/>
			<a:midPointStop  offset="0.5" style="stop-color:#DB2027"/>
			<a:midPointStop  offset="0.3782" style="stop-color:#F04E23"/>
			<a:midPointStop  offset="0.5" style="stop-color:#F04E23"/>
			<a:midPointStop  offset="0.8139" style="stop-color:#FFD41C"/>
		</linearGradient>
		<path fill="url(#SVGID_3_)" d="M251.119,54.585l-2.245,3.605c0.968,1.226,2.307,2.103,4.129,2.447
			c1.261-0.209,2.463-0.596,3.558-1.127l0.219-0.103l0.225-0.115c0.138-0.077,0.288-0.154,0.424-0.236
			c0.274-0.17,0.555-0.33,0.817-0.514c0.528-0.353,1.021-0.748,1.478-1.159c0.222-0.209,0.434-0.406,0.667-0.651l0.165-0.171
			l0.082-0.088l0.042-0.042l0.026-0.035c0.082-0.101,0.166-0.2,0.245-0.301l0.064-0.071l0.03-0.038l0.018-0.018
			c-0.003,0.004,0.07-0.071,0.047-0.05l0.133-0.177c0.089-0.113,0.18-0.228,0.266-0.344c0.168-0.234,0.336-0.462,0.481-0.701
			c0.606-0.955,1.079-1.93,1.406-2.905c0.33-0.971,0.531-1.932,0.637-2.847c0.209-1.834,0.026-3.49-0.315-4.877
			c-0.339-1.394-0.861-2.522-1.354-3.403c-0.118-0.224-0.256-0.419-0.369-0.612c-0.114-0.191-0.235-0.362-0.348-0.525
			c-0.118-0.157-0.225-0.302-0.324-0.435c-0.099-0.133-0.195-0.247-0.277-0.353c-0.009-0.004-0.013-0.008-0.015-0.016
			c-0.007,0.002-0.007,0.004-0.013,0.008c0.006,0.006,0.013,0.01,0.015,0.018c0.084,0.105,0.183,0.221,0.275,0.356
			c0.094,0.134,0.197,0.284,0.303,0.446c0.102,0.167,0.216,0.342,0.327,0.538c0.107,0.195,0.222,0.4,0.325,0.628
			c0.219,0.447,0.417,0.97,0.585,1.544c0.038,0.146,0.085,0.292,0.12,0.441c0.026,0.15,0.064,0.307,0.097,0.463
			c0.057,0.319,0.112,0.645,0.136,0.992c0.125,1.36-0.028,2.923-0.613,4.445c-0.292,0.76-0.692,1.504-1.186,2.194
			c-0.12,0.172-0.26,0.336-0.389,0.508c-0.071,0.077-0.142,0.159-0.21,0.241c-0.074,0.083-0.147,0.163-0.222,0.242
			c-0.073,0.073-0.146,0.153-0.224,0.23c-0.074,0.075-0.156,0.146-0.235,0.221c-0.154,0.151-0.325,0.289-0.49,0.427
			c-0.168,0.137-0.351,0.267-0.522,0.396c-0.088,0.06-0.177,0.122-0.269,0.181l-0.142,0.091c-0.032,0.03,0.036-0.028,0.019-0.018
			l-0.021,0.013l-0.041,0.026l-0.083,0.05c-0.103,0.07-0.212,0.139-0.318,0.206l-0.044,0.027l-0.032,0.015l-0.071,0.035l-0.13,0.064
			c-0.168,0.089-0.377,0.184-0.572,0.271c-0.796,0.349-1.634,0.593-2.483,0.718c-0.847,0.129-1.698,0.138-2.537,0.061
			C251.96,54.756,251.528,54.687,251.119,54.585z"/>
		<path d="M280.218,12.429C272.203,4.413,261.549,0,250.213,0c-11.332,0-21.99,4.413-30.001,12.429
			c-8.016,8.013-12.428,18.668-12.428,30.003c0,11.333,4.412,21.991,12.428,30.005c8.014,8.014,18.671,12.427,30.001,12.427
			c11.336,0,21.99-4.413,30.005-12.427c8.018-8.019,12.431-18.672,12.431-30.005C292.648,31.1,288.235,20.443,280.218,12.429z
			 M274.866,67.086c-6.583,6.584-15.338,10.212-24.653,10.212c-4.422,0-8.708-0.841-12.707-2.406
			c0.878-0.768,1.908-1.127,1.985-1.145l12.943-3.25c1.117-0.281,2.761-1.104,3.651-1.83c0,0,9.175-5.593,10.33-6.984
			c1.156-1.39,2.622-9.558,3.504-13.808c0.104-1.343-0.71-2.444-1.642-2.544c-0.936-0.101-1.759,0.745-1.985,1.963
			c-0.649,3.651-3.413,9.097-4.08,10.111c-0.676,1.015-3.452,2.56-3.971,2.852c-4.368,1.962-9.197,2.435-10.613,1.47
			c-0.159-0.108-0.318-0.2-0.437-0.34c-0.003,0-0.009,0-0.014,0c0-0.005,0.002-0.009,0.002-0.009
			c-0.174-0.203-0.368-0.781-0.346-0.799c-0.026-0.229-0.009-0.466,0.051-0.707c-0.004,0-0.012,0.005-0.018,0.005l0,0
			c0.006-0.005,0.014-0.012,0.021-0.016c0.056-0.22,0.145-0.438,0.279-0.656l4.721-7.581c0.183-0.295,1.486-2.865-0.431-3.357
			c0,0,0.003,0.004,0.003,0.006l-0.015-0.006c0,0,0,0,0-0.003v-0.002c-0.531-0.107-1.216,0.082-1.803,0.554l-6.516,5.263
			c-2.283,1.946-10.437,6.749-10.437,6.749c-2.283,1.54-4.135,4.441-5.619,7.631c-0.507-0.451-1.029-0.888-1.514-1.372
			c-6.584-6.584-10.212-15.338-10.212-24.654c0-9.312,3.628-18.067,10.212-24.654c6.588-6.585,15.345-10.213,24.654-10.213
			c9.315,0,18.07,3.628,24.657,10.211c6.584,6.585,10.212,15.342,10.212,24.656C285.082,51.748,281.454,60.502,274.866,67.086z"/>
	</g>
</g>
</svg>
